<svg t="1712576938801" class="icon" viewBox="0 0 1024 1024" version="1.1" xmlns="http://www.w3.org/2000/svg" p-id="4262" width="48" height="48"><path d="M815.9 63.9H209.2c-79.8 0-144.5 64.7-144.5 144.5v606.7c0 79.8 64.7 144.5 144.5 144.5h606.7c79.8 0 144.5-64.7 144.5-144.5V208.4c0-79.8-64.7-144.5-144.5-144.5zM411.4 771.8c0 23.9-19.4 43.3-43.3 43.3s-43.3-19.4-43.3-43.3v-520c0-23.9 19.4-43.3 43.3-43.3s43.3 19.4 43.3 43.3v520z m288.9 0c0 23.9-19.4 43.3-43.3 43.3s-43.3-19.4-43.3-43.3v-520c0-23.9 19.4-43.3 43.3-43.3s43.3 19.4 43.3 43.3v520z" fill="#3b4a7e" p-id="4263" data-spm-anchor-id="a313x.search_index.0.i0.62833a819Meh2G" class="selected"></path></svg>